{
  "asset": {
    "generator": "Khronos glTF Blender I/O v4.4.56",
    "version": "2.0"
  },
  "scene": 0,
  "scenes": [
    {
      "name": "Scene",
      "nodes": [0]
    }
  ],
  "nodes": [
    {
      "mesh": 0,
      "name": "sphere_gltf"
    }
  ],
  "materials": [
    {
      "doubleSided": true,
      "name": "wood_shutter",
      "normalTexture": {
        "index": 0
      },
      "pbrMetallicRoughness": {
        "baseColorTexture": {
          "index": 1
        },
        "metallicFactor": 0,
        "metallicRoughnessTexture": {
          "index": 2
        }
      }
    }
  ],
  "meshes": [
    {
      "name": "Sphere.001",
      "primitives": [
        {
          "attributes": {
            "POSITION": 0,
            "NORMAL": 1,
            "TEXCOORD_0": 2
          },
          "indices": 3,
          "material": 0
        }
      ]
    }
  ],
  "textures": [
    {
      "sampler": 0,
      "source": 0
    },
    {
      "sampler": 0,
      "source": 1
    },
    {
      "sampler": 0,
      "source": 2
    }
  ],
  "images": [
    {
      "mimeType": "image/jpeg",
      "name": "wood_shutter_nor_gl",
      "uri": "textures/wood_shutter_nor_gl_1k.jpg"
    },
    {
      "mimeType": "image/jpeg",
      "name": "wood_shutter_diff",
      "uri": "textures/wood_shutter_diff_1k.jpg"
    },
    {
      "mimeType": "image/jpeg",
      "name": "wood_shutter_rough",
      "uri": "textures/wood_shutter_arm_1k.jpg"
    }
  ],
  "accessors": [
    {
      "bufferView": 0,
      "componentType": 5126,
      "count": 53951,
      "max": [0.5016751885414124, 0.5001318454742432, 0.5007625818252563],
      "min": [-0.5016752481460571, -0.5000964999198914, -0.5007604360580444],
      "type": "VEC3"
    },
    {
      "bufferView": 1,
      "componentType": 5126,
      "count": 53951,
      "type": "VEC3"
    },
    {
      "bufferView": 2,
      "componentType": 5126,
      "count": 53951,
      "type": "VEC2"
    },
    {
      "bufferView": 3,
      "componentType": 5123,
      "count": 322170,
      "type": "SCALAR"
    }
  ],
  "bufferViews": [
    {
      "buffer": 0,
      "byteLength": 647412,
      "byteOffset": 0,
      "target": 34962
    },
    {
      "buffer": 0,
      "byteLength": 647412,
      "byteOffset": 647412,
      "target": 34962
    },
    {
      "buffer": 0,
      "byteLength": 431608,
      "byteOffset": 1294824,
      "target": 34962
    },
    {
      "buffer": 0,
      "byteLength": 644340,
      "byteOffset": 1726432,
      "target": 34963
    }
  ],
  "samplers": [
    {
      "magFilter": 9729,
      "minFilter": 9987
    }
  ],
  "buffers": [
    {
      "byteLength": 2370772,
      "uri": "wood_shutter.bin"
    }
  ]
}
