{
  "asset": {
    "generator": "custom",
    "version": "2.0"
  },
  "scene": 0,
  "scenes": [{ "name": "Scene", "nodes": [0] }],
  "nodes": [{ "mesh": 0, "name": "sphere_gltf" }],
  "materials": [
    {
      "doubleSided": true,
      "name": "plaster_wood_wall",
      "normalTexture": { "index": 0 },
      "pbrMetallicRoughness": {
        "baseColorTexture": { "index": 1 },
        "metallicFactor": 0,
        "metallicRoughnessTexture": { "index": 2 }
      }
    }
  ],
  "meshes": [
    {
      "name": "Sphere.001",
      "primitives": [
        {
          "attributes": { "POSITION": 0, "NORMAL": 1, "TEXCOORD_0": 2 },
          "indices": 3,
          "material": 0
        }
      ]
    }
  ],
  "textures": [
    { "sampler": 0, "source": 0 },
    { "sampler": 0, "source": 1 },
    { "sampler": 0, "source": 2 }
  ],
  "images": [
    {
      "mimeType": "image/jpeg",
      "name": "normal",
      "uri": "plaster_wood_wall_nor_gl_1k.jpg"
    },
    {
      "mimeType": "image/jpeg",
      "name": "diffuse",
      "uri": "plaster_wood_wall_diff_1k.jpg"
    },
    {
      "mimeType": "image/jpeg",
      "name": "arm",
      "uri": "plaster_wood_wall_arm_1k.jpg"
    }
  ],
  "accessors": [
    {
      "bufferView": 0,
      "componentType": 5126,
      "count": 53934,
      "max": [1.5, 1.5, 1.5],
      "min": [-1.5, -1.5, -1.5],
      "type": "VEC3"
    },
    { "bufferView": 1, "componentType": 5126, "count": 53934, "type": "VEC3" },
    { "bufferView": 2, "componentType": 5126, "count": 53934, "type": "VEC2" },
    {
      "bufferView": 3,
      "componentType": 5123,
      "count": 322170,
      "type": "SCALAR"
    }
  ],
  "bufferViews": [
    { "buffer": 0, "byteLength": 647208, "byteOffset": 0 },
    { "buffer": 0, "byteLength": 647208, "byteOffset": 647208 },
    { "buffer": 0, "byteLength": 431472, "byteOffset": 1294416 },
    { "buffer": 0, "byteLength": 644340, "byteOffset": 1725888 }
  ],
  "samplers": [{ "magFilter": 9729, "minFilter": 9987 }],
  "buffers": [{ "byteLength": 2370228, "uri": "plaster_wood_wall.bin" }]
}
